# File created by Blade
# Date/Time:  Thu Sep 25 17:54:10 2014
# Frame Rate: 120.000 fps
#------------------------------------------------------
:FULLY-SPECIFIED
:DEGREES
2030
root 0.062040 32.465354 -6.944859 27.197409 0.494587 -0.353858
Spine -35.140455 8.885245 -4.903871
Head 0.786088 -5.842114 -7.804062
LeftShoulder -1.038820 30.377590 28.339548
LeftArm 92.849702 10.082987 -68.793586
LeftForeArm 2.982987 -0.000000 80.084198
LeftHand -21.636618 -0.000000 9.334078
LeftHandThumb1 -26.253704 0.000000 33.147579
RightShoulder -4.183499 -16.633616 -41.489279
RightArm 98.428562 4.449198 75.359392
RightForeArm -4.529441 -0.000000 105.755525
RightHand 5.417393 -0.000000 5.122195
RightHandThumb1 -24.326973 -0.000000 -32.862282
LeftUpLeg -23.131333 4.351711 -0.045975
LeftLeg 0.273032 -0.000000 -0.000000
LeftFoot -6.296962 -1.255932 -1.710783
LeftToeBase 3.968362 -0.000000 -0.000000
RightUpLeg -23.024433 -7.559742 4.645943
RightLeg -0.726686 -0.000000 0.000000
RightFoot -8.268063 0.080742 11.618063
RightToeBase 16.498029 -0.000000 -0.000000
2031
root 0.069930 32.463707 -6.953597 27.333615 0.490053 -0.352157
Spine -35.229330 8.626488 -4.769003
Head 0.778700 -5.577268 -7.780831
LeftShoulder -1.203300 30.651314 27.947235
LeftArm 92.467190 9.981287 -69.325404
LeftForeArm 2.906002 -0.000000 80.441304
LeftHand -21.714194 0.000000 9.460380
LeftHandThumb1 -26.253704 0.000000 33.147579
RightShoulder -4.052806 -18.281260 -40.730788
RightArm 98.203732 4.736845 76.398503
RightForeArm -3.795465 -0.000000 106.084003
RightHand 5.670205 0.000000 4.415365
RightHandThumb1 -24.326973 -0.000000 -32.862282
LeftUpLeg -23.278533 4.341084 -0.068814
LeftLeg 0.265691 -0.000000 -0.000000
LeftFoot -6.317041 -1.254371 -1.752042
LeftToeBase 4.014241 -0.000000 -0.000000
RightUpLeg -23.191699 -7.620795 4.684022
RightLeg -0.703714 -0.000000 0.000000
RightFoot -8.308389 0.108470 11.466410
RightToeBase 16.644171 -0.000000 -0.000000
2032
root 0.078973 32.462776 -6.958603 27.408466 0.521173 -0.346223
Spine -35.276249 8.448428 -4.700566
Head 0.821166 -5.489041 -7.702057
LeftShoulder -1.191742 31.081733 27.674492
LeftArm 92.341125 9.834272 -69.808375
LeftForeArm 2.947249 -0.000000 80.812369
LeftHand -21.898568 0.000000 9.845266
LeftHandThumb1 -26.253704 0.000000 33.147579
RightShoulder -4.049241 -20.016468 -39.860731
RightArm 98.003759 5.016634 77.343642
RightForeArm -3.172442 -0.000000 106.277479
RightHand 5.970679 -0.000000 4.037608
RightHandThumb1 -24.326973 -0.000000 -32.862282
LeftUpLeg -23.357440 4.315484 -0.085128
LeftLeg 0.249605 -0.000000 -0.000000
LeftFoot -6.311737 -1.270872 -1.723191
LeftToeBase 4.049423 -0.000000 -0.000000
RightUpLeg -23.260029 -7.675035 4.700339
RightLeg -0.736916 -0.000000 0.000000
RightFoot -8.298650 0.123991 11.481310
RightToeBase 16.642010 -0.000000 -0.000000
2033
root 0.085340 32.461059 -6.963561 27.490975 0.537625 -0.343586
Spine -35.306321 8.265120 -4.635147
Head 0.798677 -5.310795 -7.647333
LeftShoulder -1.239823 31.263304 27.460394
LeftArm 92.002188 9.808269 -70.362123
LeftForeArm 3.052146 -0.000000 81.241457
LeftHand -22.006876 -0.000000 10.153414
LeftHandThumb1 -26.253704 0.000000 33.147579
RightShoulder -4.050203 -21.588701 -39.083433
RightArm 97.548795 5.134889 78.413201
RightForeArm -2.296760 -0.000000 106.592868
RightHand 6.069879 -0.000000 3.460353
RightHandThumb1 -24.326973 -0.000000 -32.862282
LeftUpLeg -23.444993 4.315530 -0.104913
LeftLeg 0.234839 -0.000000 -0.000000
LeftFoot -6.304378 -1.283170 -1.691169
LeftToeBase 4.017065 -0.000000 -0.000000
RightUpLeg -23.341047 -7.684287 4.705569
RightLeg -0.757616 -0.000000 0.000000
RightFoot -8.289405 0.127953 11.514133
RightToeBase 16.616277 -0.000000 -0.000000
2034
root 0.091678 32.459613 -6.968166 27.563656 0.569657 -0.341972
Spine -35.329392 8.078231 -4.552402
Head 0.799992 -5.223232 -7.597835
LeftShoulder -1.236066 31.392662 27.311359
LeftArm 91.612550 9.771024 -70.932677
LeftForeArm 3.104159 -0.000000 81.694880
LeftHand -21.996175 -0.000000 10.602399
LeftHandThumb1 -26.253704 0.000000 33.147579
RightShoulder -4.054447 -23.185100 -38.301722
RightArm 97.141116 5.181509 79.467841
RightForeArm -1.328618 -0.000000 106.770077
RightHand 6.101091 -0.000000 3.225634
RightHandThumb1 -24.326973 -0.000000 -32.862282
LeftUpLeg -23.521128 4.301513 -0.121767
LeftLeg 0.207690 -0.000000 -0.000000
LeftFoot -6.214270 -1.240227 -1.459557
LeftToeBase 3.619326 -0.000000 -0.000000
RightUpLeg -23.411254 -7.725439 4.727795
RightLeg -0.786765 -0.000000 0.000000
RightFoot -8.274267 0.090416 11.383939
RightToeBase 16.562630 -0.000000 -0.000000
2035
root 0.097738 32.458945 -6.973759 27.615257 0.609573 -0.329024
Spine -35.329439 7.878833 -4.469548
Head 0.811122 -5.040140 -7.593769
LeftShoulder -1.154295 31.638956 27.238681
LeftArm 91.270005 9.613143 -71.566070
LeftForeArm 2.824998 -0.000000 82.292311
LeftHand -21.953132 -0.000000 10.475018
LeftHandThumb1 -26.253704 0.000000 33.147579
RightShoulder -4.013658 -24.261626 -37.668709
RightArm 96.082430 5.073397 80.570007
RightForeArm -0.498326 -0.000000 106.955918
RightHand 6.209548 0.000000 3.202875
RightHandThumb1 -24.326973 -0.000000 -32.862282
LeftUpLeg -23.581943 4.259067 -0.126727
LeftLeg 0.203277 -0.000000 -0.000000
LeftFoot -6.276335 -1.286652 -1.646304
LeftToeBase 3.914779 -0.000000 -0.000000
RightUpLeg -23.439996 -7.682189 4.690162
RightLeg -0.831254 -0.000000 0.000000
RightFoot -8.290175 0.053075 11.541260
RightToeBase 16.599754 -0.000000 -0.000000
2036
root 0.103917 32.458648 -6.977255 27.664837 0.665059 -0.319096
Spine -35.337049 7.657916 -4.351581
Head 0.841743 -4.877535 -7.620743
LeftShoulder -1.130403 31.806994 27.121600
LeftArm 90.965568 9.468472 -72.069753
LeftForeArm 2.794590 0.000000 82.753219
LeftHand -22.005086 -0.000000 10.655608
LeftHandThumb1 -26.253704 0.000000 33.147579
RightShoulder -3.943337 -25.315134 -37.070338
RightArm 94.985571 4.940559 81.603298
RightForeArm 0.485264 -0.000000 107.067501
RightHand 6.407353 0.000000 2.369637
RightHandThumb1 -24.326973 -0.000000 -32.862282
LeftUpLeg -23.638174 4.235156 -0.139644
LeftLeg 0.188733 -0.000000 -0.000000
LeftFoot -6.276531 -1.334167 -1.680457
LeftToeBase 3.989295 -0.000000 -0.000000
RightUpLeg -23.479367 -7.694649 4.687833
RightLeg -0.862371 -0.000000 0.000000
RightFoot -8.268482 -0.026863 11.463613
RightToeBase 16.552091 -0.000000 -0.000000
2037
root 0.109519 32.458347 -6.978697 27.710150 0.722125 -0.314993
Spine -35.326280 7.471480 -4.285860
Head 0.816398 -4.774031 -7.573400
LeftShoulder -1.088590 31.940401 27.089920
LeftArm 90.718594 9.358661 -72.554477
LeftForeArm 2.746769 0.000000 83.224929
LeftHand -21.896901 -0.000000 10.618613
LeftHandThumb1 -26.253704 0.000000 33.147579
RightShoulder -3.991114 -26.523572 -36.335877
RightArm 94.032310 4.773315 82.660100
RightForeArm 1.745826 -0.000000 107.073670
RightHand 6.680004 0.000000 1.773668
RightHandThumb1 -24.326973 -0.000000 -32.862282
LeftUpLeg -23.680752 4.215498 -0.144831
LeftLeg 0.163362 -0.000000 -0.000000
LeftFoot -6.261116 -1.379266 -1.676193
LeftToeBase 4.016647 -0.000000 -0.000000
RightUpLeg -23.514809 -7.725465 4.695807
RightLeg -0.878991 -0.000000 0.000000
RightFoot -8.249911 0.017302 11.668086
RightToeBase 16.463136 -0.000000 -0.000000
2038
root 0.114550 32.458562 -6.981286 27.765158 0.809827 -0.306076
Spine -35.327406 7.201043 -4.149058
Head 0.809690 -4.595186 -7.584647
LeftShoulder -1.109365 32.180131 27.005372
LeftArm 90.592635 9.159065 -72.962202
LeftForeArm 2.659878 -0.000000 83.653607
LeftHand -21.838637 -0.000000 10.507866
LeftHandThumb1 -26.253704 0.000000 33.147579
RightShoulder -3.911387 -27.804957 -35.657786
RightArm 93.167626 4.633539 83.706353
RightForeArm 3.100827 -0.000000 107.021441
RightHand 6.967857 0.000000 1.171488
RightHandThumb1 -24.326973 -0.000000 -32.862282
LeftUpLeg -23.751166 4.186477 -0.151257
LeftLeg 0.157185 -0.000000 -0.000000
LeftFoot -6.228816 -1.419028 -1.624992
LeftToeBase 3.955774 -0.000000 -0.000000
RightUpLeg -23.563526 -7.753254 4.706092
RightLeg -0.884652 -0.000000 0.000000
RightFoot -8.305266 -0.077554 11.562629
RightToeBase 16.584680 -0.000000 -0.000000
2039
root 0.118942 32.458511 -6.983882 27.811401 0.907428 -0.296681
Spine -35.310217 6.940794 -4.020223
Head 0.788319 -4.419137 -7.594130
LeftShoulder -1.101070 32.293573 26.985013
LeftArm 90.408585 8.985038 -73.376289
LeftForeArm 2.503472 0.000000 84.056083
LeftHand -21.735915 -0.000000 10.335566
LeftHandThumb1 -26.253704 0.000000 33.147579
RightShoulder -3.917002 -28.951847 -34.981791
RightArm 92.157722 4.330085 84.688496
RightForeArm 4.370740 -0.000000 106.832342
RightHand 7.376761 -0.000000 0.341853
RightHandThumb1 -24.326973 -0.000000 -32.862282
LeftUpLeg -23.812171 4.151620 -0.155676
LeftLeg 0.143068 -0.000000 -0.000000
LeftFoot -6.127906 -1.428176 -1.398160
LeftToeBase 3.644842 -0.000000 -0.000000
RightUpLeg -23.604424 -7.789387 4.717238
RightLeg -0.890247 -0.000000 0.000000
RightFoot -8.322461 -0.119024 11.585660
RightToeBase 16.608038 -0.000000 -0.000000
2040
root 0.121405 32.457719 -6.985179 27.857276 1.009615 -0.290701
Spine -35.290621 6.646885 -3.876185
Head 0.769061 -4.175020 -7.595226
LeftShoulder -1.157232 32.408504 26.971868
LeftArm 90.309381 8.819921 -73.749365
LeftForeArm 2.315188 -0.000000 84.372983
LeftHand -21.656798 0.000000 10.113686
LeftHandThumb1 -26.253704 0.000000 33.147579
RightShoulder -3.856097 -30.008897 -34.310863
RightArm 91.062959 4.088466 85.565015
RightForeArm 5.772767 -0.000000 106.586268
RightHand 7.752906 -0.000000 -0.640183
RightHandThumb1 -24.326973 -0.000000 -32.862282
LeftUpLeg -23.864533 4.091707 -0.132950
LeftLeg 0.133212 -0.000000 -0.000000
LeftFoot -6.202313 -1.518484 -1.609691
LeftToeBase 4.006986 -0.000000 -0.000000
RightUpLeg -23.645598 -7.830595 4.737327
RightLeg -0.887463 -0.000000 0.000000
RightFoot -8.294996 -0.136392 11.661237
RightToeBase 16.397965 -0.000000 -0.000000
2041
root 0.123747 32.457774 -6.986289 27.905517 1.107107 -0.287536
Spine -35.288430 6.372531 -3.732926
Head 0.780310 -3.928386 -7.625585
LeftShoulder -1.170290 32.475912 26.994700
LeftArm 90.210196 8.645646 -74.125909
LeftForeArm 2.107684 -0.000000 84.641468
LeftHand -21.846184 0.000000 10.057994
LeftHandThumb1 -26.253704 0.000000 33.147579
RightShoulder -3.742306 -30.930831 -33.668186
RightArm 89.804338 3.819671 86.431530
RightForeArm 7.232958 0.000000 106.263905
RightHand 8.239692 -0.000000 -1.538666
RightHandThumb1 -24.326973 -0.000000 -32.862282
LeftUpLeg -23.922901 4.049523 -0.122503
LeftLeg 0.122257 -0.000000 -0.000000
LeftFoot -6.185158 -1.560126 -1.597481
LeftToeBase 4.000694 -0.000000 -0.000000
RightUpLeg -23.688221 -7.858584 4.758290
RightLeg -0.890332 -0.000000 0.000000
RightFoot -8.307999 -0.200570 11.674907
RightToeBase 16.419344 -0.000000 -0.000000
